<?xml version="1.0" encoding="UTF-8" standalone="no"?>
<!DOCTYPE svg PUBLIC "-//W3C//DTD SVG 1.1//EN" "http://www.w3.org/Graphics/SVG/1.1/DTD/svg11.dtd">
<svg width="100%" height="100%" viewBox="0 0 260 260" version="1.1" xmlns="http://www.w3.org/2000/svg" xmlns:xlink="http://www.w3.org/1999/xlink" xml:space="preserve" xmlns:serif="http://www.serif.com/" style="fill-rule:evenodd;clip-rule:evenodd;stroke-linejoin:round;stroke-miterlimit:2;">
    <g transform="matrix(1,0,0,1,-423,-261)">
        <g id="Favicon" transform="matrix(1.07016,0,0,1.07016,-30.519,-18.3208)">
            <rect x="423.785" y="261.008" width="242.954" height="242.954" style="fill:none;"/>
            <g transform="matrix(1.63114,0,0,1.57319,-450.177,238.605)">
                <g id="j" transform="matrix(0.820096,0,0,0.850303,434.167,-144.019)">
                    <g transform="matrix(1,0,0,1,-588.052,190.409)">
                        <path d="M774.89,120.022C761.143,112.304 767.852,98.481 779.031,93.247C765.256,85.17 765.242,65.829 777.051,55.692C789.213,45.251 809.174,45.762 821.521,55.518L841.282,47.047C841.917,48.81 846.263,58.821 840.426,58.821L833.944,58.647C831.664,58.647 828.903,58.995 825.662,59.69C833.428,69.377 829.919,83.378 820.621,90.552C810.699,98.207 795.672,99.46 784.072,95.507C772.62,100.611 774.378,108.465 786.863,110.198C795.631,111.416 808.674,110.652 819.278,113.439C828.579,115.884 836.004,121.06 837.022,132.703C837.321,136.126 836.77,139.651 835.75,142.933C834.691,146.342 832.899,149.526 830.879,152.47C818.356,170.714 788.091,168.138 771.109,159.489C754.766,151.166 761.856,127.364 774.89,120.022ZM806.652,124.545C799.703,123.714 789.147,125.643 779.211,122.108C769.555,131.044 774.155,148.5 784.997,154.537C794.346,159.743 806.843,160.694 816.327,155.044C818.318,153.857 820.094,152.24 821.499,150.397C825.383,145.302 828.202,136.66 826.039,132.594C826.039,132.594 823.572,128.279 820.901,127.098C818.228,125.915 810.299,124.982 806.652,124.545ZM799.556,91.334C801.28,91.334 803.949,91.041 805.542,90.291C821.387,82.833 814.42,53.978 796.855,54.475C795.43,54.515 793.986,54.637 792.613,55.024C786.301,56.802 782.888,63.114 783.172,69.427C783.551,77.842 785.879,88.376 795.399,90.819C796.751,91.166 798.16,91.334 799.556,91.334Z" style="fill:rgb(177,1,152);stroke:black;stroke-width:1.4px;"/>
                    </g>
                    <g>
                        <g transform="matrix(1,0,0,1,-153.713,0.170429)">
                            <path d="M387.425,280.868C387.425,280.868 393.454,276.509 395.555,268.871C397.277,262.612 397.091,256.747 392.24,250.34C398.376,248.783 404.701,249.366 404.701,249.366L404.84,302.069C404.9,307.183 405.083,329.239 403.356,333.816C399.601,350.591 380.427,358.432 365.079,358.02C356.674,357.795 349.618,357.89 342.135,354.374C338.495,353 334.246,350.455 332.513,346.785C330.828,343.992 331.285,340.17 333.558,337.776C336.625,333.93 341.064,333.276 344.297,334.963C347.358,336.561 349.259,340.313 350.621,343.468C354.829,348.006 364.711,349.272 371.576,348.204C378.387,347.144 382.509,342.471 385.159,337.655C387.81,332.839 387.461,327.354 387.477,319.307L387.425,280.868Z" style="stroke:black;stroke-width:1.4px;stroke-linecap:round;"/>
                        </g>
                        <g transform="matrix(1,0,0,1,-153.713,-0.829571)">
                            <path d="M386.64,245.045C386.889,241.073 386.416,237.342 385.818,234.842C385.523,233.61 385.148,231.334 382.162,231.298C382.201,229.823 382.162,228.019 382.162,228.019L409.622,228.019L409.622,231.128C409.622,231.128 409.273,231.891 407.415,233.066C406.998,233.329 404.876,234.231 404.876,238.917C398.296,241.708 388.094,246.122 388.094,246.122C388.094,246.122 387.71,245.804 386.64,245.045Z" style="stroke:black;stroke-width:1.4px;stroke-linecap:round;stroke-miterlimit:1.5;"/>
                        </g>
                    </g>
                </g>
                <g id="brush" transform="matrix(1,0,0,1,-2.15468,4.09272)">
                    <g transform="matrix(1.05194,0,0,1.88757,234.73,-425.562)">
                        <path d="M371.035,235.382C371.035,235.305 371.096,235.231 371.2,235.183C371.305,235.134 371.442,235.115 371.573,235.132C374.305,235.482 386.568,237.05 388.671,237.319C388.851,237.342 388.979,237.434 388.981,237.54C388.996,238.38 389.055,241.84 389.055,241.84L371.046,241.84C371.046,241.84 371.037,236.724 371.035,235.382Z" style="fill:rgb(177,1,152);"/>
                    </g>
                    <g transform="matrix(0.820096,0,0,0.698814,340.651,-138.462)">
                        <rect x="346.784" y="241.293" width="23.1" height="11.556" style="fill:rgb(102,102,102);"/>
                    </g>
                    <g transform="matrix(0.887408,0,0,1.30134,313.276,-274.12)">
                        <rect x="352.241" y="234.703" width="19.523" height="3.283" style="fill:rgb(204,204,204);stroke:white;stroke-width:0.53px;stroke-linejoin:miter;stroke-miterlimit:1.5;"/>
                    </g>
                    <g transform="matrix(-1.08281,-1.04132e-16,1.84637e-16,-1.18394,1024.3,343.851)">
                        <path d="M367.638,257.213C367.678,257.242 367.695,257.292 367.679,257.338C367.662,257.383 367.617,257.414 367.567,257.414C365.455,257.414 354.453,257.414 352.288,257.414C352.234,257.414 352.187,257.382 352.17,257.334C352.153,257.285 352.17,257.232 352.213,257.202C352.913,256.698 354.677,255.429 355.492,254.843C355.768,254.644 356.105,254.537 356.451,254.537C357.908,254.537 361.936,254.537 363.388,254.537C363.732,254.537 364.066,254.643 364.34,254.84C365.16,255.43 366.948,256.716 367.638,257.213Z"/>
                    </g>
                </g>
            </g>
        </g>
    </g>
</svg>
