<svg version="1" xmlns="http://www.w3.org/2000/svg" width="933.333" height="933.333" viewBox="0 0 700.000000 700.000000"><path d="M409.7 37.7c-.3.5-.5 20.8-.5 45.1.1 39.9.2 44.2 1.7 44.3 4.9.3 84.8.4 86.1.1 1.6-.3 1.5.7 1.1-57.9l-.1-13.2-4.2-1.2c-2.4-.6-5.1-1.3-6-1.4-1-.2-16.3-3.6-34.1-7.5-43.4-9.7-43.2-9.6-44-8.3zM415 131.8c0 .4 4.2 3.9 9.3 7.7l9.2 7h41l9.3-7c5-3.8 9.2-7.3 9.2-7.7 0-.5-17.5-.8-39-.8-21.4 0-39 .3-39 .8zM401 156.5c-.4.5-.8 4.5-.8 8.7-.1 6.1.2 7.8 1.3 7.9 3.4.3 7.6 1.9 9.2 3.5 1.9 1.9 3 5.4 4.8 14.8 1.7 8.8 2.7 31.6 1.5 31.6-.4 0-2.2-1-4.1-2.3-8.6-5.7-24.6-12.7-38.4-16.7-11.3-3.3-25.2-4.8-41-4.5-8.8.2-17.6.6-19.5.9-29 4.8-53.8 16.9-70.8 34.4-11.1 11.5-18.2 22.9-23.1 37.7-4 11.9-4.6 16.5-4.6 32.5.1 10.9.5 15 2.4 21.5 5.2 18.6 15 33.4 30 45.6l4.4 3.5-7 4.7c-35.4 23.6-45.4 61.4-22.8 86.5 2.5 2.8 6.8 6.7 9.6 8.7l4.9 3.7-4.2 3c-6.1 4.3-18.6 17.3-23.3 24.3-10.1 14.9-16.5 31-20 50-.7 3.8-.7 22.2 0 25.5.3 1.4.8 4.1 1.1 6 1.2 6.4 5.7 16.4 10.7 23.7 2.7 4 5.3 7.3 5.8 7.3s1.8 1.9 3 4.2c2.8 5.5 11.7 14.4 19.3 19.2 9.7 6.2 28.7 14.3 40.1 17.2 17.3 4.3 35.1 5.9 67 5.9 27.3-.1 34.7-1 59.6-7.9 7.3-2 23.4-8.8 30.7-12.8 39.7-22 60.4-53.1 63.7-95.8.4-4.1.9-8.9 1.3-10.5.3-1.7.6-68 .7-147.5l.1-144.5 4.3-.7c8.8-1.5 12.4-6.7 12.2-17.3-.2-10.1-7.4-33.1-10.3-32.9-.7.1-2.3.4-3.6.8-2.1.7-2.2.5-1.7-2.6 1.1-6.7 3.6-10.6 9.6-14.8 7.1-5 8.1-6.6 8.3-14.3.3-10 5.3-9.2-55.9-9.2-34.7 0-53.9.3-54.5 1zm-63 73.6c3.7.5 10 2.7 14.5 4.9 23.9 11.6 39.6 40.2 39 71.2-.2 11.9-.6 14.2-3.2 22.3-5.7 17.9-20.6 32.5-36.4 35.8-7.8 1.6-22.5 1.5-29.4-.3-23.3-6-38.2-27-43.7-61.5-1.7-11.1-1.9-28.6-.3-34.7 7.4-28.1 30.1-42.5 59.5-37.7zm82.5 180.6c0 36.4-.2 41.8-1.5 41.4-9.6-2.5-34.6-6.8-43.5-7.5-4.4-.4-9.6-.9-11.5-1.1-1.9-.2-8.2-.7-14-.9-5.8-.3-15.7-.8-22-1.2-38.6-1.9-50-3.6-62-9.3-21.9-10.3-19.1-27.7 6.7-42.1l4.2-2.3 8.8 2.1c18.4 4.5 27.2 5.6 44.8 5.6 11.1 0 21.5-.7 27.5-1.9 13.9-2.7 18.3-3.9 28.7-7.6 8-2.8 21.2-9.5 27.3-13.7 3-2.1 5.7-3.8 6-3.6.3.1.5 19 .5 42.1zM283 495.8c11.3 2 20.7 2.4 51 2.7 25.4.3 32.1.7 47.7 2.9 19.4 2.7 30.6 5 35.9 7.2l3.2 1.3-.3 22.3c-.1 12.3-.6 24.1-.9 26.3-2.5 14.7-4.8 20.7-12.2 32-11.4 17.4-23.2 26.4-40.4 31.1-7 1.9-31.4 2.6-42 1.2-8-1-20.1-4.4-26.8-7.4-9.8-4.6-14.2-8.8-19-18.7-7.4-14.9-18.1-25.4-27.9-27.3-2.8-.5-3.5-1.3-5.1-5.8-8.6-23.3-4.9-50.8 9.2-68.2l4.1-5.1 8.5 2.2c4.7 1.3 11.4 2.7 15 3.3z"/></svg>